<svg xmlns="http://www.w3.org/2000/svg" width="1024.06" height="57.76" viewBox="0 0 1024.06 57.76">
  <defs>
    <style>
      .cls-1 {
        fill-rule: evenodd;
      }
    </style>
  </defs>
  <path id="img_tagline.svg" class="cls-1" d="M1899.47,3758.3h23.38v4.68h-18.36v13.44h17.82v4.68h-17.82v17.76h18.36v4.68h-23.38V3758.3Zm46.35,0h5.74l9.2,17.04,9.21-17.04h5.73l-12.18,21.84,13.32,23.4h-5.74l-10.34-18.61-10.34,18.61h-5.75l13.34-23.4Zm60.2,45.24h-5.01V3758.3h7.41c3.89,0,7.89.12,11.18,2.39a12.529,12.529,0,0,1,5.08,10.33,12.729,12.729,0,0,1-4.3,9.72c-3.05,2.52-6.94,3-10.7,3h-3.66v19.8Zm0-24.48h3.36c5.56,0,10.28-1.69,10.28-8.16,0-7.38-5.92-7.92-11.78-7.92h-1.86v16.08Zm41.2-20.76h23.39v4.68h-18.36v13.44h17.82v4.68h-17.82v17.76h18.36v4.68h-23.39V3758.3Zm53.1,45.24h-5.02V3758.3h6.52c8.55,0,16.5,2.28,16.5,12.47,0,6.96-4.36,11.89-11.3,12.49l14.35,20.28h-6.16l-13.63-19.86h-1.26v19.86Zm0-24.3h1.56c5.67,0,11.42-1.09,11.42-8.1,0-7.44-5.44-8.16-11.48-8.16h-1.5v16.26Zm48.68,24.3h-5.03V3758.3H2149v45.24Zm27.09-45.24h23.37v4.68h-18.35v13.44h17.81v4.68h-17.81v17.76h18.35v4.68h-23.37V3758.3Zm48.37-1.92,35.15,36.95V3758.3h5.03v47.28l-35.16-36.9v34.86h-5.02v-47.16Zm99.2,11.82a19.268,19.268,0,0,0-13.75-6c-10.05,0-18.18,8.76-18.18,18.72s8.19,18.72,18.3,18.72a19.709,19.709,0,0,0,13.63-6v6.24a23.177,23.177,0,0,1-13.46,4.44,23.4,23.4,0,1,1,0-46.8,21.748,21.748,0,0,1,13.46,4.44v6.24Zm25.54-9.9h23.37v4.68h-18.35v13.44h17.81v4.68h-17.81v17.76h18.35v4.68H2349.2V3758.3Zm48.01,40.2-6.76,15.36-3.22-1.32,5.55-15.6Zm39.76,5.04h-5.01V3758.3h5.01v45.24Zm27.39-47.16,35.15,36.95V3758.3h5.03v47.28l-35.16-36.9v34.86h-5.02v-47.16Zm79.47,47.16h-5.03v-40.56h-10.88v-4.68h26.91v4.68h-11v40.56Zm34.98-45.24h23.38v4.68h-18.36v13.44h17.82v4.68h-17.82v17.76h18.36v4.68h-23.38V3758.3Zm89.99,22.5c0.11,6.12-.54,11.16-4.67,15.96a22.226,22.226,0,0,1-16.68,7.56,23.4,23.4,0,0,1,.3-46.8c7.9,0,14.29,3.54,19.07,9.78l-3.64,3.42c-3.77-5.35-8.85-8.52-15.49-8.52-10.28,0-18.41,8.69-18.41,18.9a18.285,18.285,0,0,0,5.25,12.78c3.3,3.3,8.08,5.76,12.8,5.76,7.84,0,16.09-5.76,16.09-14.16h-13.39v-4.68h18.77Zm30.08,22.74h-5.02V3758.3h6.51c8.55,0,16.51,2.28,16.51,12.47,0,6.96-4.37,11.89-11.31,12.49l14.35,20.28h-6.15l-13.64-19.86h-1.25v19.86Zm0-24.3h1.55c5.68,0,11.42-1.09,11.42-8.1,0-7.44-5.44-8.16-11.48-8.16h-1.49v16.26Zm47.6,11.46-5.45,12.84h-5.5l20.81-47.4,20.27,47.4h-5.57l-5.31-12.84h-19.25Zm9.74-22.81-7.71,18.13h15.24Zm51.6,35.65h-5.02v-40.56h-10.88v-4.68h26.91v4.68h-11.01v40.56Zm34.09-45.24h23.38v4.68h-18.36v13.44h17.82v4.68h-17.82v17.76h18.36v4.68h-23.38V3758.3Zm48.07,0h8.49c6.76,0,12.26.89,17.58,5.46,5.15,4.44,7.48,10.5,7.48,17.22a21.833,21.833,0,0,1-7.36,16.86c-5.38,4.8-10.76,5.7-17.82,5.7h-8.37V3758.3Zm8.67,40.56c5.51,0,10.11-.78,14.23-4.68a18.548,18.548,0,0,0-.23-26.82c-4.13-3.66-8.68-4.38-14-4.38h-3.64v35.88h3.64Z" transform="translate(-1899.47 -3756.12)"/>
</svg>
